<svg width="855" height="725" viewBox="0 0 855 725" fill="none" xmlns="http://www.w3.org/2000/svg">
<path d="M193.487 139.006C220.919 95.5315 340.108 45.4412 356.189 139.006L377 309.123C254.027 328.656 6.56789 361.671 0.513845 337.476C-5.5402 313.282 43.3967 293.372 68.6219 286.441C64.6312 283.451 61.4954 272.773 59.0412 258.669C50.3858 208.929 101.837 172.741 149.249 189.777C149.729 189.949 150.223 190.132 150.729 190.069C153.498 189.722 164.486 184.966 193.487 139.006Z" fill="#E3FFFD"/>
<path d="M749.033 203.178C730.252 173.452 618.861 173.554 607.851 237.529L504 282.609C570.424 426.343 816.577 392.301 847.509 373.389C874.282 357.019 821.999 343.078 804.729 338.339C807.461 336.294 809.608 328.993 811.288 319.349C817.244 285.166 781.629 260.344 749.033 272.425C749.033 272.425 772.661 240.574 749.033 203.178Z" fill="#E3FFFD"/>
<path d="M368.777 3.95944C372.966 5.94453 376.162 7.66421 377.697 8.8955C384.37 -0.63091 391.156 -0.904827 395.951 0.819366C400.038 2.28886 399.811 7.41542 396.493 10.2038L377.697 26C376.069 24.9219 370.13 20.8624 362.457 15.5994C355.054 10.5213 360.656 0.111634 368.777 3.95944Z" fill="#60CCC5"/>
<circle cx="550" cy="165" r="146" fill="#FFF8C2"/>
<circle cx="550" cy="165" r="146" fill="url(#paint0_linear_5_2)" fill-opacity="0.8"/>
<g opacity="0.3">
<path d="M660.93 429.659C660.93 422.473 655.104 416.647 647.918 416.647C640.732 416.647 634.907 422.473 634.907 429.659V478.785C634.907 491.894 643.418 503.485 655.927 507.409L676.381 513.826L680.04 490.243C669.115 488.849 660.93 479.551 660.93 468.538V429.659Z" fill="#26BAB0"/>
<path d="M660.93 429.659C660.93 422.473 655.104 416.647 647.918 416.647C640.732 416.647 634.907 422.473 634.907 429.659V478.785C634.907 491.894 643.418 503.485 655.927 507.409L676.381 513.826L680.04 490.243C669.115 488.849 660.93 479.551 660.93 468.538V429.659Z" fill="url(#paint1_linear_5_2)"/>
<path d="M638.86 426.385C638.816 421.296 642.929 417.147 648.018 417.147C653.076 417.147 657.176 421.248 657.176 426.306V473.002C657.176 480.53 662.203 487.131 669.46 489.133L676.928 491.193C679.52 491.908 681.768 493.534 683.26 495.771L687.24 501.742C688.859 504.169 687.983 507.466 685.374 508.771C684.268 509.323 682.994 509.433 681.811 509.078L667.364 504.744C650.778 499.768 639.367 484.57 639.216 467.254L638.86 426.385Z" fill="#26BAB0"/>
<path d="M638.86 426.385C638.816 421.296 642.929 417.147 648.018 417.147C653.076 417.147 657.176 421.248 657.176 426.306V473.002C657.176 480.53 662.203 487.131 669.46 489.133L676.928 491.193C679.52 491.908 681.768 493.534 683.26 495.771L687.24 501.742C688.859 504.169 687.983 507.466 685.374 508.771C684.268 509.323 682.994 509.433 681.811 509.078L667.364 504.744C650.778 499.768 639.367 484.57 639.216 467.254L638.86 426.385Z" fill="url(#paint2_linear_5_2)"/>
<path d="M638.86 426.385C638.816 421.296 642.929 417.147 648.018 417.147C653.076 417.147 657.176 421.248 657.176 426.306V473.002C657.176 480.53 662.203 487.131 669.46 489.133L676.928 491.193C679.52 491.908 681.768 493.534 683.26 495.771L687.24 501.742C688.859 504.169 687.983 507.466 685.374 508.771C684.268 509.323 682.994 509.433 681.811 509.078L667.364 504.744C650.778 499.768 639.367 484.57 639.216 467.254L638.86 426.385Z" stroke="white"/>
<path d="M647.4 416.847L647.4 477.206C647.4 483.357 651.155 488.885 656.874 491.151L681.26 500.815" stroke="white"/>
<path d="M722.591 383.37C722.591 376.5 728.16 370.931 735.03 370.931C741.9 370.931 747.469 376.5 747.469 383.37V429.366C747.469 442.475 738.957 454.066 726.449 457.99L707.819 463.835L704.321 441.289C714.765 439.956 722.591 431.068 722.591 420.539V383.37Z" fill="#26BAB0"/>
<path d="M722.591 383.37C722.591 376.5 728.16 370.931 735.03 370.931C741.9 370.931 747.469 376.5 747.469 383.37V429.366C747.469 442.475 738.957 454.066 726.449 457.99L707.819 463.835L704.321 441.289C714.765 439.956 722.591 431.068 722.591 420.539V383.37Z" fill="url(#paint3_linear_5_2)"/>
<path d="M743.667 380.24C743.709 375.387 739.787 371.431 734.934 371.431C730.11 371.431 726.2 375.341 726.2 380.164V424.807C726.2 432.013 721.388 438.333 714.441 440.249L707.302 442.219C704.828 442.901 702.684 444.451 701.261 446.586L697.455 452.294C695.915 454.604 696.748 457.74 699.231 458.982C700.283 459.508 701.495 459.612 702.621 459.275L715.634 455.371C731.956 450.474 743.186 435.517 743.334 418.477L743.667 380.24Z" fill="#26BAB0"/>
<path d="M743.667 380.24C743.709 375.387 739.787 371.431 734.934 371.431C730.11 371.431 726.2 375.341 726.2 380.164V424.807C726.2 432.013 721.388 438.333 714.441 440.249L707.302 442.219C704.828 442.901 702.684 444.451 701.261 446.586L697.455 452.294C695.915 454.604 696.748 457.74 699.231 458.982C700.283 459.508 701.495 459.612 702.621 459.275L715.634 455.371C731.956 450.474 743.186 435.517 743.334 418.477L743.667 380.24Z" fill="url(#paint4_linear_5_2)"/>
<path d="M743.667 380.24C743.709 375.387 739.787 371.431 734.934 371.431C730.11 371.431 726.2 375.341 726.2 380.164V424.807C726.2 432.013 721.388 438.333 714.441 440.249L707.302 442.219C704.828 442.901 702.684 444.451 701.261 446.586L697.455 452.294C695.915 454.604 696.748 457.74 699.231 458.982C700.283 459.508 701.495 459.612 702.621 459.275L715.634 455.371C731.956 450.474 743.186 435.517 743.334 418.477L743.667 380.24Z" stroke="white"/>
<path d="M735.525 371.121L735.525 428.377C735.525 434.528 731.77 440.056 726.051 442.322L703.155 451.396" stroke="white"/>
<path d="M726.751 492.986C726.751 485.035 733.197 478.589 741.148 478.589C749.099 478.589 755.545 485.035 755.545 492.986V549.689C755.545 562.798 747.033 574.389 734.525 578.314L709.654 586.116L705.605 560.022C717.693 558.478 726.751 548.191 726.751 536.005V492.986Z" fill="#B3D4BF"/>
<path d="M726.751 492.986C726.751 485.035 733.197 478.589 741.148 478.589C749.099 478.589 755.545 485.035 755.545 492.986V549.689C755.545 562.798 747.033 574.389 734.525 578.314L709.654 586.116L705.605 560.022C717.693 558.478 726.751 548.191 726.751 536.005V492.986Z" fill="url(#paint5_linear_5_2)"/>
<path d="M751.223 489.364C751.272 483.704 746.697 479.089 741.037 479.089C735.411 479.089 730.85 483.65 730.85 489.276V540.945C730.85 549.25 725.304 556.533 717.298 558.742L709.035 561.021C706.154 561.816 703.656 563.622 701.998 566.109L697.594 572.715C695.785 575.428 696.764 579.112 699.68 580.57C700.915 581.187 702.339 581.31 703.661 580.913L722.654 575.215C739.24 570.24 750.652 555.041 750.802 537.725L751.223 489.364Z" fill="#B3D4BF"/>
<path d="M751.223 489.364C751.272 483.704 746.697 479.089 741.037 479.089C735.411 479.089 730.85 483.65 730.85 489.276V540.945C730.85 549.25 725.304 556.533 717.298 558.742L709.035 561.021C706.154 561.816 703.656 563.622 701.998 566.109L697.594 572.715C695.785 575.428 696.764 579.112 699.68 580.57C700.915 581.187 702.339 581.31 703.661 580.913L722.654 575.215C739.24 570.24 750.652 555.041 750.802 537.725L751.223 489.364Z" fill="url(#paint6_linear_5_2)"/>
<path d="M751.223 489.364C751.272 483.704 746.697 479.089 741.037 479.089C735.411 479.089 730.85 483.65 730.85 489.276V540.945C730.85 549.25 725.304 556.533 717.298 558.742L709.035 561.021C706.154 561.816 703.656 563.622 701.998 566.109L697.594 572.715C695.785 575.428 696.764 579.112 699.68 580.57C700.915 581.187 702.339 581.31 703.661 580.913L722.654 575.215C739.24 570.24 750.652 555.041 750.802 537.725L751.223 489.364Z" stroke="white"/>
<path d="M741.721 478.809L741.721 546.682C741.721 552.833 737.966 558.36 732.247 560.627L704.256 571.719" stroke="white"/>
<path d="M714.602 405.187C714.602 393.959 705.499 384.857 694.271 384.857C683.043 384.857 673.941 393.959 673.941 405.187V661.349H714.602V405.187Z" fill="#B3D4BF"/>
<path d="M714.602 405.187C714.602 393.959 705.499 384.857 694.271 384.857C683.043 384.857 673.941 393.959 673.941 405.187V661.349H714.602V405.187Z" fill="url(#paint7_linear_5_2)"/>
<rect x="-0.5" y="0.5" width="28.2756" height="275.662" rx="14.1378" transform="matrix(-1 0 0 1 707.909 384.857)" stroke="white"/>
<line y1="-0.5" x2="262.39" y2="-0.5" transform="matrix(4.21427e-08 1 1 -4.53385e-08 694.271 384.857)" stroke="white"/>
</g>
<path d="M536.432 623.425C496.954 606.355 418.756 616.313 384.592 623.425H377L593.372 690H805C773.367 680.611 726.841 652.119 701.788 654.85C670.471 658.264 585.78 644.763 536.432 623.425Z" fill="#AEE2DE"/>
<path d="M79.305 602.205C78.526 600.748 79.2511 601.831 88.3832 617.826C93.9753 627.62 104.661 638.716 114.45 647.623C120.648 653.262 126.487 658.023 130.447 661.021C129.466 664.08 122.556 667.837 102.766 658.395C82.9746 648.953 78.879 617.001 79.305 602.205Z" fill="#A8CA98"/>
<path d="M79.305 602.205C78.526 600.748 79.2511 601.831 88.3832 617.826C93.9753 627.62 104.661 638.716 114.45 647.623C120.648 653.262 126.487 658.023 130.447 661.021C129.466 664.08 122.556 667.837 102.766 658.395C82.9746 648.953 78.879 617.001 79.305 602.205Z" fill="url(#paint8_linear_5_2)"/>
<path d="M95.1959 590.329C97.2172 608.52 141.975 639.597 126.815 662.337L120.078 664.231C115.024 659.81 107.613 647.177 101.549 635.807C101.549 635.807 90.6006 617.805 95.1959 590.329Z" fill="#A8CA98"/>
<path d="M95.1959 590.329C97.2172 608.52 141.975 639.597 126.815 662.337L120.078 664.231C115.024 659.81 107.613 647.177 101.549 635.807C101.549 635.807 90.6006 617.805 95.1959 590.329Z" fill="url(#paint9_linear_5_2)"/>
<path d="M184.085 609.278L156.04 638.808L153.766 650.967L162.861 646.624L184.085 609.278Z" fill="#FFD336"/>
<path d="M183.243 622.543C176.505 632.396 144.501 655.388 134.395 661.389C138.629 661.389 152.51 658.77 162.867 655.882C171.209 653.557 176.275 646.83 178.883 638.572C180.899 632.19 182.965 625.2 183.243 622.543Z" fill="#B6D2A1"/>
<path d="M183.243 622.543C176.505 632.396 144.501 655.388 134.395 661.389C138.629 661.389 152.51 658.77 162.867 655.882C171.209 653.557 176.275 646.83 178.883 638.572C180.899 632.19 182.965 625.2 183.243 622.543Z" fill="url(#paint10_linear_5_2)"/>
<path d="M156.308 594.118C155.634 601.698 146.483 617.489 141.991 624.438C141.991 627.912 141.317 640.355 148.728 635.807C156.14 631.259 157.712 603.909 156.308 594.118Z" fill="#F7CE38"/>
<path d="M136.079 589.381C130.016 605.299 127.377 645.282 126.815 663.284C145.344 654.757 145.344 646.229 147.028 634.86C148.376 625.764 144.782 591.276 142.817 575.169C143.098 573.274 142.143 573.463 136.079 589.381Z" fill="#A9CB99"/>
<path d="M136.079 589.381C130.016 605.299 127.377 645.282 126.815 663.284C145.344 654.757 145.344 646.229 147.028 634.86C148.376 625.764 144.782 591.276 142.817 575.169C143.098 573.274 142.143 573.463 136.079 589.381Z" fill="url(#paint11_linear_5_2)"/>
<path d="M155.45 619.7C147.365 637.892 132.991 656.336 126.815 663.284C143.757 661.042 155.098 650.508 161.534 642.278C166.525 635.898 168.941 628.001 169.695 619.936C170.564 610.636 170.948 597.691 168.083 587.486C167.241 590.644 163.535 601.509 155.45 619.7Z" fill="#B2CF9F"/>
<path d="M155.45 619.7C147.365 637.892 132.991 656.336 126.815 663.284C143.757 661.042 155.098 650.508 161.534 642.278C166.525 635.898 168.941 628.001 169.695 619.936C170.564 610.636 170.948 597.691 168.083 587.486C167.241 590.644 163.535 601.509 155.45 619.7Z" fill="url(#paint12_linear_5_2)"/>
<path d="M115.867 626.333C113.845 646.798 124.008 662.021 126.815 665.179C128.5 658.231 130.184 640.545 130.184 629.175C130.184 617.805 128.5 596.329 126.815 590.329C125.692 592.539 117.888 605.867 115.867 626.333Z" fill="#B7D4A4"/>
<path d="M115.867 626.333C113.845 646.798 124.008 662.021 126.815 665.179C128.5 658.231 130.184 640.545 130.184 629.175C130.184 617.805 128.5 596.329 126.815 590.329C125.692 592.539 117.888 605.867 115.867 626.333Z" fill="url(#paint13_linear_5_2)"/>
<path d="M495.731 550.565C494.118 547.546 495.619 549.79 514.536 582.922C526.12 603.211 548.254 626.196 568.532 644.646C581.37 656.326 593.465 666.189 601.668 672.399C599.636 678.735 585.323 686.516 544.328 666.958C503.332 647.399 494.849 581.213 495.731 550.565Z" fill="#A8CA98"/>
<path d="M495.731 550.565C494.118 547.546 495.619 549.79 514.536 582.922C526.12 603.211 548.254 626.196 568.532 644.646C581.37 656.326 593.465 666.189 601.668 672.399C599.636 678.735 585.323 686.516 544.328 666.958C503.332 647.399 494.849 581.213 495.731 550.565Z" fill="url(#paint14_linear_5_2)"/>
<path d="M528.648 525.964C532.835 563.646 625.547 628.02 594.145 675.123L580.189 679.048C569.721 669.889 554.369 643.721 541.808 620.17C541.808 620.17 519.129 582.88 528.648 525.964Z" fill="#A8CA98"/>
<path d="M528.648 525.964C532.835 563.646 625.547 628.02 594.145 675.123L580.189 679.048C569.721 669.889 554.369 643.721 541.808 620.17C541.808 620.17 519.129 582.88 528.648 525.964Z" fill="url(#paint15_linear_5_2)"/>
<path d="M712.775 565.216L654.681 626.385L649.971 651.572L668.812 642.576L712.775 565.216Z" fill="#FFD336"/>
<path d="M722.249 596.144C708.293 616.555 608.643 668.986 587.708 681.416C588.149 681.416 588.684 681.46 589.308 681.544C653.127 690.141 715.552 660.19 722.249 596.144Z" fill="#B6D2A1"/>
<path d="M722.249 596.144C708.293 616.555 608.643 668.986 587.708 681.416C588.149 681.416 588.684 681.46 589.308 681.544C653.127 690.141 715.552 660.19 722.249 596.144Z" fill="url(#paint16_linear_5_2)"/>
<path d="M655.237 533.814C653.842 549.515 634.884 582.226 625.58 596.618C625.58 603.814 624.184 629.59 639.536 620.17C654.889 610.749 658.145 554.095 655.237 533.814Z" fill="#F7CE38"/>
<path d="M613.335 524.001C600.774 556.973 595.308 639.796 594.145 677.086C632.525 659.422 632.525 641.759 636.014 618.207C638.806 599.366 631.362 527.926 627.292 494.562C627.873 490.637 625.896 491.029 613.335 524.001Z" fill="#A9CB99"/>
<path d="M613.335 524.001C600.774 556.973 595.308 639.796 594.145 677.086C632.525 659.422 632.525 641.759 636.014 618.207C638.806 599.366 631.362 527.926 627.292 494.562C627.873 490.637 625.896 491.029 613.335 524.001Z" fill="url(#paint17_linear_5_2)"/>
<path d="M653.46 586.805C636.712 624.487 606.939 662.693 594.145 677.086C637.255 671.38 662.855 639.757 673.626 622.903C677.988 616.077 680.425 608.316 681.495 600.287C683.932 582.011 687.068 546.581 679.628 520.076C677.884 526.618 670.208 549.123 653.46 586.805Z" fill="#B2CF9F"/>
<path d="M653.46 586.805C636.712 624.487 606.939 662.693 594.145 677.086C637.255 671.38 662.855 639.757 673.626 622.903C677.988 616.077 680.425 608.316 681.495 600.287C683.932 582.011 687.068 546.581 679.628 520.076C677.884 526.618 670.208 549.123 653.46 586.805Z" fill="url(#paint18_linear_5_2)"/>
<path d="M571.466 600.543C567.279 642.936 588.33 674.469 594.145 681.011C597.634 666.618 601.123 629.983 601.123 606.431C601.123 582.88 597.634 538.394 594.145 525.964C591.819 530.543 575.653 558.151 571.466 600.543Z" fill="#B7D4A4"/>
<path d="M571.466 600.543C567.279 642.936 588.33 674.469 594.145 681.011C597.634 666.618 601.123 629.983 601.123 606.431C601.123 582.88 597.634 538.394 594.145 525.964C591.819 530.543 575.653 558.151 571.466 600.543Z" fill="url(#paint19_linear_5_2)"/>
<path d="M456.957 123.21C456.957 106.642 470.388 93.2103 486.957 93.2103H487.595C504.164 93.2103 517.595 106.642 517.595 123.21V267.307C517.595 280.417 509.084 292.008 496.575 295.932L420.953 319.656L412.426 264.703L430.756 262.363C445.734 260.451 456.957 247.704 456.957 232.605V123.21Z" fill="#26BAB0"/>
<path d="M456.957 123.21C456.957 106.642 470.388 93.2103 486.957 93.2103H487.595C504.164 93.2103 517.595 106.642 517.595 123.21V267.307C517.595 280.417 509.084 292.008 496.575 295.932L420.953 319.656L412.426 264.703L430.756 262.363C445.734 260.451 456.957 247.704 456.957 232.605V123.21Z" fill="url(#paint20_linear_5_2)"/>
<path d="M508.797 115.905C508.903 103.816 499.132 93.9603 487.043 93.9603C475.027 93.9603 465.287 103.701 465.287 115.716V238.104C465.287 247.438 459.054 255.624 450.055 258.106L419.567 266.517C413.43 268.21 408.108 272.057 404.577 277.354L395.302 291.267C391.392 297.131 393.507 305.095 399.811 308.247C402.481 309.582 405.56 309.848 408.419 308.99L479.657 287.619C496.138 282.674 507.477 267.572 507.627 250.366L508.797 115.905Z" fill="#26BAB0"/>
<path d="M508.797 115.905C508.903 103.816 499.132 93.9603 487.043 93.9603C475.027 93.9603 465.287 103.701 465.287 115.716V238.104C465.287 247.438 459.054 255.624 450.055 258.106L419.567 266.517C413.43 268.21 408.108 272.057 404.577 277.354L395.302 291.267C391.392 297.131 393.507 305.095 399.811 308.247C402.481 309.582 405.56 309.848 408.419 308.99L479.657 287.619C496.138 282.674 507.477 267.572 507.627 250.366L508.797 115.905Z" fill="url(#paint21_linear_5_2)"/>
<path d="M508.797 115.905C508.903 103.816 499.132 93.9603 487.043 93.9603C475.027 93.9603 465.287 103.701 465.287 115.716V238.104C465.287 247.438 459.054 255.624 450.055 258.106L419.567 266.517C413.43 268.21 408.108 272.057 404.577 277.354L395.302 291.267C391.392 297.131 393.507 305.095 399.811 308.247C402.481 309.582 405.56 309.848 408.419 308.99L479.657 287.619C496.138 282.674 507.477 267.572 507.627 250.366L508.797 115.905Z" stroke="white" stroke-width="1.5"/>
<path d="M488.484 93.6748L488.484 237.689C488.484 249.992 480.973 261.047 469.536 265.579L409.583 289.337" stroke="white" stroke-width="1.5"/>
<path d="M303.58 267.546C303.58 250.978 290.149 237.546 273.58 237.546H266.485C249.916 237.546 236.485 250.978 236.485 267.546V432.528C236.485 445.637 244.996 457.229 257.505 461.153L343.418 488.106L352.853 427.301L329.781 424.355C314.803 422.443 303.58 409.697 303.58 394.597V267.546Z" fill="#B3D4BF"/>
<path d="M303.58 267.546C303.58 250.978 290.149 237.546 273.58 237.546H266.485C249.916 237.546 236.485 250.978 236.485 267.546V432.528C236.485 445.637 244.996 457.229 257.505 461.153L343.418 488.106L352.853 427.301L329.781 424.355C314.803 422.443 303.58 409.697 303.58 394.597V267.546Z" fill="url(#paint22_linear_5_2)"/>
<path d="M246.14 262.659C246.023 249.238 256.87 238.296 270.291 238.296C283.63 238.296 294.443 249.11 294.443 262.449V399.49C294.443 408.825 300.677 417.011 309.675 419.493L344.973 429.231C351.782 431.109 357.686 435.378 361.604 441.255L371.867 456.649C376.22 463.178 373.865 472.044 366.847 475.553C363.874 477.039 360.447 477.335 357.264 476.38L275.432 451.831C258.951 446.886 247.612 431.784 247.462 414.577L246.14 262.659Z" fill="#B3D4BF"/>
<path d="M246.14 262.659C246.023 249.238 256.87 238.296 270.291 238.296C283.63 238.296 294.443 249.11 294.443 262.449V399.49C294.443 408.825 300.677 417.011 309.675 419.493L344.973 429.231C351.782 431.109 357.686 435.378 361.604 441.255L371.867 456.649C376.22 463.178 373.865 472.044 366.847 475.553C363.874 477.039 360.447 477.335 357.264 476.38L275.432 451.831C258.951 446.886 247.612 431.784 247.462 414.577L246.14 262.659Z" fill="url(#paint23_linear_5_2)"/>
<path d="M246.14 262.659C246.023 249.238 256.87 238.296 270.291 238.296C283.63 238.296 294.443 249.11 294.443 262.449V399.49C294.443 408.825 300.677 417.011 309.675 419.493L344.973 429.231C351.782 431.109 357.686 435.378 361.604 441.255L371.867 456.649C376.22 463.178 373.865 472.044 366.847 475.553C363.874 477.039 360.447 477.335 357.264 476.38L275.432 451.831C258.951 446.886 247.612 431.784 247.462 414.577L246.14 262.659Z" stroke="white" stroke-width="1.5"/>
<path d="M268.696 238.06L268.696 399.581C268.696 411.883 276.207 422.939 287.644 427.471L355.998 454.558" stroke="white" stroke-width="1.5"/>
<path d="M331.891 49.1323C331.891 32.5637 345.322 19.1322 361.89 19.1322H396.638C413.206 19.1322 426.638 32.5637 426.638 49.1322V663.414H331.891V49.1323Z" fill="#B3D4BF"/>
<path d="M331.891 49.1323C331.891 32.5637 345.322 19.1322 361.89 19.1322H396.638C413.206 19.1322 426.638 32.5637 426.638 49.1322V663.414H331.891V49.1323Z" fill="url(#paint24_linear_5_2)"/>
<rect x="345.905" y="19.8822" width="66.7181" height="620.043" rx="33.359" stroke="white" stroke-width="1.5"/>
<line x1="380.014" y1="19.1322" x2="380.014" y2="608.611" stroke="white" stroke-width="1.5"/>
<path d="M91.0464 651.061C44.2455 636.044 12.2949 670.726 2.16974 689.944H644.557C605.181 684.58 541.055 664.924 492.679 630.064C435.683 588.992 338.094 601.136 305.925 608.156C248.549 620.678 149.548 669.832 91.0464 651.061Z" fill="#FCFDFD"/>
<path d="M91.0464 651.061C44.2455 636.044 12.2949 670.726 2.16974 689.944H644.557C605.181 684.58 541.055 664.924 492.679 630.064C435.683 588.992 338.094 601.136 305.925 608.156C248.549 620.678 149.548 669.832 91.0464 651.061Z" fill="url(#paint25_linear_5_2)"/>
<path d="M601 676.531C601 685.512 584.536 682.522 562.992 682.522C541.449 682.522 525 681.233 525 672.252C525 663.271 541.449 650 562.992 650C584.536 650 601 667.551 601 676.531Z" fill="#C4C4C4"/>
<path d="M601 676.531C601 685.512 584.536 682.522 562.992 682.522C541.449 682.522 525 681.233 525 672.252C525 663.271 541.449 650 562.992 650C584.536 650 601 667.551 601 676.531Z" fill="url(#paint26_linear_5_2)"/>
<path d="M71 655.452C71 658.99 78.149 657.812 87.5034 657.812C96.8578 657.812 104 657.304 104 653.766C104 650.228 96.8578 645 87.5034 645C78.149 645 71 651.914 71 655.452Z" fill="#C4C4C4"/>
<path d="M71 655.452C71 658.99 78.149 657.812 87.5034 657.812C96.8578 657.812 104 657.304 104 653.766C104 650.228 96.8578 645 87.5034 645C78.149 645 71 651.914 71 655.452Z" fill="url(#paint27_linear_5_2)"/>
<path d="M345 608.128C345 616.972 332.347 619.277 315.791 619.277C299.235 619.277 280 622.872 280 614.028C280 605.184 299.235 582 315.791 582C332.347 582 345 599.284 345 608.128Z" fill="#C4C4C4"/>
<path d="M345 608.128C345 616.972 332.347 619.277 315.791 619.277C299.235 619.277 280 622.872 280 614.028C280 605.184 299.235 582 315.791 582C332.347 582 345 599.284 345 608.128Z" fill="url(#paint28_linear_5_2)"/>
<path d="M364 625.626C364 628.884 358.55 629.734 351.418 629.734C344.286 629.734 336 631.058 336 627.8C336 624.541 344.286 616 351.418 616C358.55 616 364 622.368 364 625.626Z" fill="#C4C4C4"/>
<path d="M364 625.626C364 628.884 358.55 629.734 351.418 629.734C344.286 629.734 336 631.058 336 627.8C336 624.541 344.286 616 351.418 616C358.55 616 364 622.368 364 625.626Z" fill="url(#paint29_linear_5_2)"/>
<path d="M512 667.668C512 672.294 503.335 670.754 491.996 670.754C480.657 670.754 472 670.09 472 665.463C472 660.837 480.657 654 491.996 654C503.335 654 512 663.041 512 667.668Z" fill="#C4C4C4"/>
<path d="M512 667.668C512 672.294 503.335 670.754 491.996 670.754C480.657 670.754 472 670.09 472 665.463C472 660.837 480.657 654 491.996 654C503.335 654 512 663.041 512 667.668Z" fill="url(#paint30_linear_5_2)"/>
<defs>
<linearGradient id="paint0_linear_5_2" x1="550" y1="19" x2="550" y2="311" gradientUnits="userSpaceOnUse">
<stop stop-color="white"/>
<stop offset="1" stop-color="white" stop-opacity="0"/>
</linearGradient>
<linearGradient id="paint1_linear_5_2" x1="657.473" y1="416.647" x2="657.473" y2="513.826" gradientUnits="userSpaceOnUse">
<stop stop-color="#90DBD6"/>
<stop offset="0.953125" stop-color="#18B5AB"/>
<stop offset="0.979167" stop-color="white" stop-opacity="0"/>
</linearGradient>
<linearGradient id="paint2_linear_5_2" x1="664.647" y1="416.647" x2="664.647" y2="510.167" gradientUnits="userSpaceOnUse">
<stop stop-color="#90DBD6"/>
<stop offset="0.953125" stop-color="#18B5AB"/>
<stop offset="0.979167" stop-color="white" stop-opacity="0"/>
</linearGradient>
<linearGradient id="paint3_linear_5_2" x1="725.895" y1="370.931" x2="725.895" y2="463.835" gradientUnits="userSpaceOnUse">
<stop stop-color="#90DBD6"/>
<stop offset="0.953125" stop-color="#18B5AB"/>
<stop offset="0.979167" stop-color="white" stop-opacity="0"/>
</linearGradient>
<linearGradient id="paint4_linear_5_2" x1="719.036" y1="370.931" x2="719.036" y2="460.336" gradientUnits="userSpaceOnUse">
<stop stop-color="#90DBD6"/>
<stop offset="0.953125" stop-color="#18B5AB"/>
<stop offset="0.979167" stop-color="white" stop-opacity="0"/>
</linearGradient>
<linearGradient id="paint5_linear_5_2" x1="730.575" y1="478.589" x2="730.575" y2="586.116" gradientUnits="userSpaceOnUse">
<stop stop-color="#8EDAD5"/>
<stop offset="1" stop-color="#19B5AC"/>
</linearGradient>
<linearGradient id="paint6_linear_5_2" x1="722.637" y1="478.589" x2="722.637" y2="582.067" gradientUnits="userSpaceOnUse">
<stop stop-color="#8EDAD5"/>
<stop offset="1" stop-color="#19B5AC"/>
</linearGradient>
<linearGradient id="paint7_linear_5_2" x1="666.808" y1="482.626" x2="719.953" y2="482.421" gradientUnits="userSpaceOnUse">
<stop stop-color="#94DCD8"/>
<stop offset="0.916667" stop-color="#1EB6AD"/>
</linearGradient>
<linearGradient id="paint8_linear_5_2" x1="76.2833" y1="636.755" x2="110.08" y2="640.51" gradientUnits="userSpaceOnUse">
<stop stop-color="#FBF177"/>
<stop offset="0.882335" stop-color="#FED233"/>
</linearGradient>
<linearGradient id="paint9_linear_5_2" x1="94.8116" y1="623.49" x2="117.71" y2="627.259" gradientUnits="userSpaceOnUse">
<stop stop-color="#FFF47D"/>
<stop offset="1" stop-color="#FED130"/>
</linearGradient>
<linearGradient id="paint10_linear_5_2" x1="176.505" y1="632.017" x2="156.858" y2="648.65" gradientUnits="userSpaceOnUse">
<stop stop-color="#FEEA69"/>
<stop offset="1" stop-color="#FEC314"/>
</linearGradient>
<linearGradient id="paint11_linear_5_2" x1="143.659" y1="575.169" x2="126.86" y2="635.834" gradientUnits="userSpaceOnUse">
<stop stop-color="#FEF887"/>
<stop offset="1" stop-color="#FFD336"/>
</linearGradient>
<linearGradient id="paint12_linear_5_2" x1="158.819" y1="634.86" x2="145.185" y2="643.747" gradientUnits="userSpaceOnUse">
<stop stop-color="#FFEF74"/>
<stop offset="1" stop-color="#FED83C"/>
</linearGradient>
<linearGradient id="paint13_linear_5_2" x1="121.11" y1="594.118" x2="120.869" y2="642.439" gradientUnits="userSpaceOnUse">
<stop offset="0.28125" stop-color="#FFF683"/>
<stop offset="1" stop-color="#FFC61A"/>
</linearGradient>
<linearGradient id="paint14_linear_5_2" x1="489.472" y1="622.132" x2="559.48" y2="629.911" gradientUnits="userSpaceOnUse">
<stop stop-color="#FBF177"/>
<stop offset="0.882335" stop-color="#FED233"/>
</linearGradient>
<linearGradient id="paint15_linear_5_2" x1="527.852" y1="594.656" x2="575.285" y2="602.463" gradientUnits="userSpaceOnUse">
<stop stop-color="#FFF47D"/>
<stop offset="1" stop-color="#FED130"/>
</linearGradient>
<linearGradient id="paint16_linear_5_2" x1="697.074" y1="612.319" x2="656.375" y2="646.773" gradientUnits="userSpaceOnUse">
<stop stop-color="#FEEA69"/>
<stop offset="1" stop-color="#FEC314"/>
</linearGradient>
<linearGradient id="paint17_linear_5_2" x1="629.036" y1="494.562" x2="594.237" y2="620.225" gradientUnits="userSpaceOnUse">
<stop stop-color="#FEF887"/>
<stop offset="1" stop-color="#FFD336"/>
</linearGradient>
<linearGradient id="paint18_linear_5_2" x1="660.438" y1="618.207" x2="632.197" y2="636.616" gradientUnits="userSpaceOnUse">
<stop stop-color="#FFEF74"/>
<stop offset="1" stop-color="#FED83C"/>
</linearGradient>
<linearGradient id="paint19_linear_5_2" x1="582.328" y1="533.814" x2="581.828" y2="633.908" gradientUnits="userSpaceOnUse">
<stop offset="0.28125" stop-color="#FFF683"/>
<stop offset="1" stop-color="#FFC61A"/>
</linearGradient>
<linearGradient id="paint20_linear_5_2" x1="465.01" y1="93.2103" x2="465.01" y2="319.656" gradientUnits="userSpaceOnUse">
<stop stop-color="#90DBD6"/>
<stop offset="0.953125" stop-color="#18B5AB"/>
<stop offset="0.979167" stop-color="white" stop-opacity="0"/>
</linearGradient>
<linearGradient id="paint21_linear_5_2" x1="448.294" y1="93.2103" x2="448.294" y2="311.129" gradientUnits="userSpaceOnUse">
<stop stop-color="#90DBD6"/>
<stop offset="0.953125" stop-color="#18B5AB"/>
<stop offset="0.979167" stop-color="white" stop-opacity="0"/>
</linearGradient>
<linearGradient id="paint22_linear_5_2" x1="294.669" y1="237.546" x2="294.669" y2="488.106" gradientUnits="userSpaceOnUse">
<stop stop-color="#8EDAD5"/>
<stop offset="1" stop-color="#19B5AC"/>
</linearGradient>
<linearGradient id="paint23_linear_5_2" x1="313.165" y1="237.546" x2="313.165" y2="478.671" gradientUnits="userSpaceOnUse">
<stop stop-color="#8EDAD5"/>
<stop offset="1" stop-color="#19B5AC"/>
</linearGradient>
<linearGradient id="paint24_linear_5_2" x1="443.26" y1="246.953" x2="319.42" y2="246.477" gradientUnits="userSpaceOnUse">
<stop stop-color="#94DCD8"/>
<stop offset="0.916667" stop-color="#1EB6AD"/>
</linearGradient>
<linearGradient id="paint25_linear_5_2" x1="310.099" y1="723.105" x2="395.371" y2="639.727" gradientUnits="userSpaceOnUse">
<stop stop-color="#C4E8E5"/>
<stop offset="1" stop-color="#D6F1EF"/>
</linearGradient>
<linearGradient id="paint26_linear_5_2" x1="572.212" y1="658.735" x2="533.115" y2="678.063" gradientUnits="userSpaceOnUse">
<stop stop-color="#0A5273"/>
<stop offset="1" stop-color="#182840"/>
</linearGradient>
<linearGradient id="paint27_linear_5_2" x1="83.5" y1="648.441" x2="99.789" y2="657.317" gradientUnits="userSpaceOnUse">
<stop stop-color="#0A5273"/>
<stop offset="1" stop-color="#182840"/>
</linearGradient>
<linearGradient id="paint28_linear_5_2" x1="322.877" y1="590.602" x2="290.331" y2="603.157" gradientUnits="userSpaceOnUse">
<stop stop-color="#0A5273"/>
<stop offset="1" stop-color="#182840"/>
</linearGradient>
<linearGradient id="paint29_linear_5_2" x1="354.47" y1="619.169" x2="341.087" y2="625.206" gradientUnits="userSpaceOnUse">
<stop stop-color="#0A5273"/>
<stop offset="1" stop-color="#182840"/>
</linearGradient>
<linearGradient id="paint30_linear_5_2" x1="496.848" y1="658.5" x2="476.446" y2="668.804" gradientUnits="userSpaceOnUse">
<stop stop-color="#0A5273"/>
<stop offset="1" stop-color="#182840"/>
</linearGradient>
</defs>
</svg>
